<?xml version="1.0" encoding="UTF-8"?>
<svg width="64px" height="64px" viewBox="0 0 64 64" version="1.1" xmlns="http://www.w3.org/2000/svg" xmlns:xlink="http://www.w3.org/1999/xlink">
    <title>8198A839-5908-4195-8073-B5BA3F8CC443@1x</title>
    <g id="Desktop" stroke="none" stroke-width="1" fill="none" fill-rule="evenodd">
        <g id="11.-Q&amp;A" transform="translate(-388.000000, -471.000000)">
            <g id="Group-4" transform="translate(380.000000, 463.000000)">
                <g id="Group-10-Copy" transform="translate(8.000000, 8.000000)">
                    <circle id="Oval" fill="#EC1C29" cx="32" cy="32" r="32"></circle>
                    <path d="M31.4032568,17 L31.6938497,17.0029052 C39.5144544,17.1582097 45.8044138,23.5199526 45.8057559,31.3480627 C45.8063464,34.7943983 44.5872814,37.9568864 42.5549164,40.4306826 L47,44.9615296 L44.9060157,47 L40.4813441,42.4893215 C38.0039121,44.4951758 34.8442007,45.6973786 31.4022487,45.6973786 C23.4475672,45.6960255 17.0013582,39.2740693 17,31.3487325 C17.0018243,23.4239217 23.4499342,17 31.4032568,17 L31.4032568,17 Z M31.403016,19.9163524 L31.1244962,19.9200187 C24.916773,20.0675077 19.9291577,25.1278769 19.9277255,31.3488179 C19.9288077,37.6631055 25.0646148,42.77959 31.4024987,42.7806681 C37.7417492,42.7806681 42.8791122,37.6625765 42.8780304,31.3485607 C42.8769478,25.034273 37.7411406,19.9177886 31.403016,19.9163524 L31.403016,19.9163524 Z" id="Combined-Shape" fill="#FFFFFF" fill-rule="nonzero"></path>
                </g>
            </g>
        </g>
    </g>
</svg>