<?xml version="1.0" encoding="UTF-8"?>
<svg width="14px" height="14px" viewBox="0 0 14 14" version="1.1" xmlns="http://www.w3.org/2000/svg" xmlns:xlink="http://www.w3.org/1999/xlink">
    <title>3107EF5D-14CB-4713-95EA-7AE8A15EDC18@1x</title>
    <g id="Mobile" stroke="none" stroke-width="1" fill="none" fill-rule="evenodd">
        <g id="12.3.1-Product-page-B2C" transform="translate(-119.000000, -1922.000000)" fill="#1D1E4F">
            <g id="Group-48-Copy-2" transform="translate(20.000000, 1713.000000)">
                <g id="Group-10" transform="translate(20.000000, 198.000000)">
                    <path d="M92.4374585,12.5871195 L88.7200248,23.7394207 C88.5785601,24.1638147 88.1198409,24.3931743 87.6954468,24.2517096 C87.4643857,24.1746893 87.2802474,23.9977844 87.194034,23.7699937 L85.4112552,19.0595845 C85.3290567,18.8424018 85.1575982,18.6709433 84.9404155,18.5887448 L80.2300063,16.805966 C79.8116189,16.6476163 79.6008168,16.1800785 79.7591666,15.7616911 C79.84538,15.5339005 80.0295183,15.3569956 80.2605793,15.2799752 L91.4128805,11.5625415 C91.8372746,11.4210768 92.2959938,11.6504364 92.4374585,12.0748305 C92.4928805,12.2410966 92.4928805,12.4208534 92.4374585,12.5871195 Z" id="Triangle"></path>
                </g>
            </g>
        </g>
    </g>
</svg>