<?xml version="1.0" encoding="UTF-8"?>
<svg width="59px" height="58px" viewBox="0 0 59 58" version="1.1" xmlns="http://www.w3.org/2000/svg" xmlns:xlink="http://www.w3.org/1999/xlink">
    <title>200ADE3D-FF14-4D8E-83AC-31A3AAD652B2@1x</title>
    <defs>
        <polygon id="path-1" points="0 0 47.2 0 47.2 58 0 58"></polygon>
    </defs>
    <g id="Desktop" stroke="none" stroke-width="1" fill="none" fill-rule="evenodd">
        <g id="16.3.2-Newsletter" transform="translate(-199.000000, -358.000000)">
            <g id="Group" transform="translate(0.000000, 305.000000)">
                <g id="Group-9" transform="translate(199.000000, 53.000000)">
                    <g id="Group-3" transform="translate(35.400000, 29.000000) scale(-1, 1) translate(-35.400000, -29.000000) translate(11.800000, 0.000000)">
                        <mask id="mask-2" fill="white">
                            <use xlink:href="#path-1"></use>
                        </mask>
                        <g id="Clip-2"></g>
                        <path d="M34.1247257,14.497608 C31.224167,16.3183609 27.1994684,15.9305082 24.6763987,13.6680342 C23.9200329,12.9906387 25.051112,11.899803 25.8033143,12.5745051 C27.8198271,14.3831376 31.031259,14.5986113 33.3197859,13.161671 C34.1844022,12.6189466 34.9837906,13.9589237 34.1247257,14.497608 M45.8962752,13.1912986 C40.6280835,-0.0253202942 27.5589156,1.0305009 20.8085246,2.59537875 C18.8433614,3.05056696 16.7394155,2.99535183 14.9310767,2.12268329 C13.9276777,1.63652072 13.0255901,0.963165366 12.312247,0.128204727 C12.0901946,-0.13171044 11.6544169,0.0312415556 11.6738465,0.369265943 C11.8056901,2.51053597 12.8132526,4.60063099 14.4522764,6.04430487 C11.9472485,6.37424899 9.34090914,5.89886011 7.1217736,4.7272218 C6.82200294,4.56696322 6.49031226,4.83765208 6.60272626,5.15008896 C7.43264687,7.47181822 9.23682211,9.45686981 11.5197977,10.5248114 C10.3387568,12.458688 9.36033872,14.4652869 8.67891561,16.1446352 C6.99131785,20.3342522 6.51945663,24.8928679 6.45561658,29.3868416 C6.4153696,31.9011505 6.50696619,34.4666344 5.86579006,36.9041808 C5.37727492,38.8111231 4.36554896,40.6722773 2.82922435,41.9004775 C2.53778065,42.1348052 2.75428168,42.5913401 3.13038283,42.5388184 C4.63201176,42.3287315 6.13502852,42.1199913 7.64498442,41.9193314 C5.49524022,44.2289403 2.97078271,46.2045649 0.196516319,47.7627092 C-0.13517436,47.9472086 -0.0241481917,48.4374113 0.357504263,48.4589586 C4.11435225,48.6703922 7.87813937,48.796983 11.6433143,48.8589317 C11.8820206,50.4709444 12.119339,52.0843039 12.3566575,53.6963166 C12.3511061,53.7030501 12.3413914,53.7043969 12.3344522,53.7111304 C11.2991332,54.760218 10.2638142,55.8093057 9.22849515,56.85974 C9.01476977,57.0752138 8.98978889,57.4549862 9.22849515,57.6677665 C9.45887445,57.8724665 9.83358777,57.898054 10.0611914,57.6677665 C10.8966633,56.8206854 11.7321353,55.9736044 12.5676072,55.1265234 C12.6772455,55.8645208 12.785496,56.603865 12.8951344,57.3418625 C13.0019971,58.0677395 14.1372396,57.7593428 14.0303769,57.0388526 C13.9124116,56.2415998 13.7958342,55.4443471 13.6778689,54.6457476 C14.7312296,55.0901622 15.7845904,55.53323 16.8379512,55.9762978 C17.1196801,56.0948084 17.481903,56.0665274 17.6428909,55.7715978 C17.7775101,55.5251497 17.7330997,55.1170964 17.4319412,54.9905056 C16.2106533,54.4760621 14.9907533,53.9616186 13.7694655,53.4485218 C13.6820323,53.4121606 13.5876601,53.3946534 13.4919,53.3906133 C13.2712355,51.8849907 13.0477954,50.3807148 12.825743,48.8750923 C15.0990038,48.9033732 17.3722646,48.9141469 19.6427498,48.8899061 C20.3047433,48.8831725 20.9709003,48.867012 21.6384452,48.8441179 C21.9701358,50.3887951 22.3018265,51.9321256 22.634905,53.4768027 C22.5724528,53.5212442 22.5169397,53.5764593 22.4711414,53.6424482 C21.7411444,54.686149 21.0097595,55.728503 20.2797624,56.7708571 C20.106284,57.0186519 20.2228615,57.4159316 20.4907121,57.5532961 C20.789095,57.7054744 21.1124587,57.6125513 21.2970397,57.3472493 C21.8507827,56.5567301 22.4031379,55.7675577 22.9568809,54.9770385 C23.1442376,55.8483603 23.3315942,56.7183354 23.5175631,57.5896572 C23.6729997,58.3088008 24.8082423,58.0044441 24.6541935,57.2853006 C24.4876542,56.5095953 24.321115,55.7325432 24.1531879,54.9568378 C25.5035437,55.6813682 26.8525116,56.4072452 28.2014796,57.1317756 C28.8648609,57.4873072 29.4602388,56.501515 28.7968574,56.1446367 C27.1425675,55.2571543 25.4896654,54.3683252 23.8353755,53.4794962 C23.4995213,51.915965 23.1636672,50.3524339 22.8264252,48.7875561 C25.5201976,48.6259508 28.1806622,48.1909632 30.5163752,46.9331354 C34.4286598,44.8134128 36.8101711,40.6493832 37.7122587,36.3830037 C38.5380159,32.5098637 38.3020853,26.3661695 37.9745581,22.0364945 C37.9745581,22.0351478 37.9745581,22.0338011 37.9745581,22.0324544 L43.9213972,22.0324544 L43.9408268,22.0364945 L46.7539524,22.0364945 C46.7553402,22.0351478 46.7553402,22.0338011 46.7553402,22.0324544 L47.1203387,22.0324544 L47.1272779,21.9462649 C47.3743111,18.9781145 47.0037612,15.9695628 45.8962752,13.1912986" id="Fill-1" fill="#1D1E4F" mask="url(#mask-2)"></path>
                    </g>
                    <g id="mail" transform="translate(10.488889, 28.801066) scale(-1, 1) translate(-10.488889, -28.801066) translate(0.000000, 22.011222)" fill="#7097FF" fill-rule="nonzero">
                        <path d="M20.7929562,1.03598472 L14.4295622,6.32968714 L20.7929562,12.5437024 C20.9079882,12.3073927 20.9777778,12.046151 20.9777778,11.7671871 L20.9777778,1.8125 C20.9777778,1.53349583 20.9079882,1.27229444 20.7929562,1.03598472 Z" id="Path"></path>
                        <path d="M19.1357512,0 L1.84202656,0 C1.5581554,0 1.29239757,0.0685930556 1.05196562,0.181652778 L9.18505679,7.21471075 C9.90418068,7.9215052 11.0735971,7.9215052 11.792721,7.21471075 L19.9258122,0.181652778 C19.6853802,0.0685930556 19.4196224,0 19.1357512,0 Z" id="Path"></path>
                        <path d="M0.18482156,1.03598472 C0.0697896045,1.27229444 0,1.53349583 0,1.8125 L0,11.7671871 C0,12.0461913 0.0697896045,12.307433 0.18482156,12.5437024 L6.54821557,6.32968714 L0.18482156,1.03598472 Z" id="Path"></path>
                        <path d="M13.5624182,7.18401909 L12.661956,8.0690427 C11.4637304,9.24672464 9.51400639,9.24672464 8.31578076,8.0690427 L7.41535962,7.18401909 L1.05196562,13.3980344 C1.29239757,13.5110941 1.5581554,13.5796871 1.84202656,13.5796871 L19.1357512,13.5796871 C19.4196224,13.5796871 19.6853802,13.5110941 19.9258122,13.3980344 L13.5624182,7.18401909 Z" id="Path"></path>
                    </g>
                </g>
            </g>
        </g>
    </g>
</svg>