<?xml version="1.0" encoding="UTF-8"?>
<svg width="183px" height="102px" viewBox="0 0 183 102" version="1.1" xmlns="http://www.w3.org/2000/svg" xmlns:xlink="http://www.w3.org/1999/xlink">
    <title>77BE521B-F5C7-492B-AAC6-B7D699F27D49@1x</title>
    <g id="Desktop" stroke="none" stroke-width="1" fill="none" fill-rule="evenodd">
        <g id="1.HP" transform="translate(-1502.000000, -7894.000000)">
            <g id="Logo-Copy-2" transform="translate(1502.000000, 7894.000000)">
                <path d="M2.24476193,58.3019616 L9.39227406,69.1335285 L16.5413195,58.3019616 L18.7830148,58.3019616 L18.7830148,78.1514341 L16.5696857,78.1514341 L16.5696857,62.0742841 L9.4214069,72.7073486 L9.30947546,72.7073486 L2.15889672,62.1021985 L2.15889672,78.1514341 L0,78.1514341 L0,58.3019616 L2.24476193,58.3019616 Z M38.5130769,58.3018065 L38.5130769,78.1512791 L36.2974478,78.1512791 L36.2974478,58.3018065 L38.5130769,58.3018065 Z M58.243369,58.3029696 L58.243369,76.0813479 L69.289315,76.0813479 L69.289315,78.1516668 L56.0300398,78.1516668 L56.0300398,58.3029696 L58.243369,58.3029696 Z M94.488071,58.1608388 L103.431853,78.1514341 L101.04756,78.1514341 L98.7483654,72.905851 L88.0681132,72.905851 L85.7405527,78.1514341 L83.4697245,78.1514341 L92.4119729,58.1608388 L94.488071,58.1608388 Z M148.887438,58.3018065 L148.887438,78.1512791 L146.671043,78.1512791 L146.671043,58.3018065 L148.887438,58.3018065 Z M168.478813,58.3029696 L180.84187,74.2095316 L180.84187,58.3029696 L183,58.3029696 L183,78.1516668 L181.23363,78.1516668 L168.561612,61.8752389 L168.561612,78.1516668 L166.405015,78.1516668 L166.405015,58.3029696 L168.478813,58.3029696 Z M130.558129,58.3011862 L130.558129,60.3722804 L123.969508,60.3722804 L123.969508,78.1506587 L121.727046,78.1506587 L121.727046,60.3722804 L115.138424,60.3722804 L115.138424,58.3011862 L130.558129,58.3011862 Z M93.4224224,60.7692854 L88.9359651,70.8929118 L97.8797468,70.8929118 L93.4224224,60.7692854 Z" id="Combined-Shape" fill="#FFFFFF"></path>
                <g id="Group-20" transform="translate(52.955989, 0.000000)" fill="#E1251B">
                    <path d="M50.8428611,0 L79.2542793,28.7347847 L70.703791,37.3828243 L42.2241406,8.58057983 L50.8428611,0 Z M28.3983851,0.00403208161 L56.7990701,28.7287366 L48.2493484,37.378327 L29.8856932,18.8059388 L28.3983851,17.3047638 L26.9133769,18.8059388 L8.55202164,37.378327 L0,28.7287366 L28.3983851,0.00403208161 Z M28.3991517,27.4035774 C34.322318,27.4035774 39.2733673,31.7031722 40.3589489,37.3767762 L40.3589489,37.3767762 L16.4401212,37.3767762 C17.5257028,31.7031722 22.4759855,27.4035774 28.3991517,27.4035774 Z" id="Combined-Shape"></path>
                </g>
                <path d="M58.597333,101 C55.5008188,101 53.6669832,98.6908579 53.6669832,95.9001922 L53.6669832,95.8715023 C53.6669832,93.1932697 55.5843841,90.7422293 58.5122344,90.7422293 C60.109174,90.7422293 61.1173236,91.2253037 62.097107,92.0456772 L61.6225483,92.6000884 C60.8512947,91.9185116 59.9550766,91.4082982 58.4716018,91.4082982 C56.0896088,91.4082982 54.4236704,93.4499272 54.4236704,95.8428125 L54.4236704,95.8715023 C54.4236704,98.4365266 56.0068102,100.347113 58.6241658,100.347113 C59.8715114,100.347113 61.034525,99.8237177 61.7482795,99.2142531 L61.7482795,96.3677585 L58.4716018,96.3677585 L58.4716018,95.6861817 L62.4482343,95.6861817 L62.4482343,99.5120068 C61.565816,100.306017 60.1927392,101 58.597333,101" id="Fill-8" stroke="#FFFFFF" stroke-width="0.552123" fill="#FFFFFF"></path>
                <path d="M78.1462348,93.7601648 C78.1462348,92.4288025 77.1089524,91.5936964 75.3318492,91.5936964 L71.9838726,91.5936964 L71.9838726,96.0545744 L75.2889166,96.0545744 C76.9272555,96.0545744 78.1462348,95.2194682 78.1462348,93.7888547 L78.1462348,93.7601648 Z M78.3125986,100.830265 L75.1900183,96.7214186 L71.9838726,96.7214186 L71.9838726,100.830265 L71.2540183,100.830265 L71.2540183,90.9136703 L75.3724818,90.9136703 C77.4892126,90.9136703 78.8745558,92.0736692 78.8745558,93.7322504 L78.8745558,93.7601648 C78.8745558,95.4187461 77.6555764,96.3662853 76.0034378,96.594253 L79.2379496,100.830265 L78.3125986,100.830265 Z" id="Fill-10" stroke="#FFFFFF" stroke-width="0.552123" fill="#FFFFFF"></path>
                <path d="M96.2232382,95.8712697 C96.2232382,93.4210047 94.4576348,91.4096163 92.0350093,91.4096163 C89.6123837,91.4096163 87.8751465,93.3923149 87.8751465,95.8425799 L87.8751465,95.8712697 C87.8751465,98.3215347 89.6407499,100.334474 92.0633754,100.334474 C94.486001,100.334474 96.2232382,98.3502245 96.2232382,95.8999595 L96.2232382,95.8712697 Z M92.0350093,100.999767 C89.0665263,100.999767 87.1184593,98.6045558 87.1184593,95.8999595 L87.1184593,95.8712697 C87.1184593,93.1643472 89.0925925,90.7427721 92.0633754,90.7427721 C95.0333917,90.7427721 96.9791588,93.1379836 96.9791588,95.8425799 C96.9937252,95.8565371 96.9937252,95.8565371 96.9791588,95.8712697 C96.9791588,98.575866 95.0050256,100.999767 92.0350093,100.999767 L92.0350093,100.999767 Z" id="Fill-12" stroke="#FFFFFF" stroke-width="0.552123" fill="#FFFFFF"></path>
                <path d="M109.496696,100.985578 C107.14537,100.985578 105.477131,99.4836272 105.477131,96.7061432 L105.477131,90.9131275 L106.205452,90.9131275 L106.205452,96.6371326 C106.205452,98.9741892 107.451264,100.320284 109.525063,100.320284 C111.513762,100.320284 112.787941,99.1013548 112.787941,96.7061432 L112.787941,90.9131275 L113.516262,90.9131275 L113.516262,96.6224 C113.516262,99.4688945 111.878689,100.985578 109.496696,100.985578" id="Fill-14" stroke="#FFFFFF" stroke-width="0.552123" fill="#FFFFFF"></path>
                <path d="M128.91979,93.9872796 C128.91979,92.4155432 127.714611,91.592068 125.949007,91.592068 L123.177554,91.592068 L123.177554,96.4522772 L125.866209,96.4522772 C127.686245,96.4522772 128.91979,95.48923 128.91979,94.0159694 L128.91979,93.9872796 Z M125.823276,97.1338541 L123.177554,97.1338541 L123.177554,100.829412 L122.4477,100.829412 L122.4477,90.9128174 L126.00574,90.9128174 C128.163103,90.9128174 129.648111,92.03172 129.648111,93.9438572 L129.648111,93.972547 C129.648111,96.0560476 127.868708,97.1338541 125.823276,97.1338541 L125.823276,97.1338541 Z" id="Fill-16" stroke="#FFFFFF" stroke-width="0.552123" fill="#FFFFFF"></path>
            </g>
        </g>
    </g>
</svg>