<?xml version="1.0" encoding="UTF-8"?>
<svg width="117px" height="86px" viewBox="0 0 117 86" version="1.1" xmlns="http://www.w3.org/2000/svg" xmlns:xlink="http://www.w3.org/1999/xlink">
    <title>D89BEF03-F03D-49D9-A531-6F5E7AD566FF@1x</title>
    <g id="Desktop" stroke="none" stroke-width="1" fill="none" fill-rule="evenodd">
        <g id="1.HP" transform="translate(-689.000000, -2639.000000)" fill="#6CAFFF">
            <g id="Group-4-Copy" transform="translate(689.000000, 2638.000000)">
                <polygon id="Star" transform="translate(58.692857, 43.111111) scale(1, -1) translate(-58.692857, -43.111111) " points="58.6928571 74.0151708 44.646737 84.9694917 39.140195 70.475297 19.7722937 75.3802411 24.0668121 60.6666179 3.81408238 58.3985218 16.9258388 46.8361839 0.427937011 37.9146409 19.3531861 32.1523805 10.3895827 18.6212087 30.7927779 19.9790903 31.4169264 4.93811801 48.6239417 13.1050672 58.6928571 0 68.7617726 13.1050672 85.9687879 4.93811801 86.5929364 19.9790903 106.996132 18.6212087 98.0325282 32.1523805 116.957777 37.9146409 100.459875 46.8361839 113.571632 58.3985218 93.3189022 60.6666179 97.6134206 75.3802411 78.2455193 70.475297 72.7389772 84.9694917"></polygon>
            </g>
        </g>
    </g>
</svg>